<?xml version="1.0" encoding="utf-8"?>
<svg xmlns="http://www.w3.org/2000/svg" fill="none" height="57" viewBox="0 0 57 57" width="57">
<path d="M26.2162 2.17526C19.4079 2.78314 13.307 6.47465 9.6265 12.233C8.86388 13.4156 7.7697 15.7366 7.31655 17.1071C6.92971 18.3228 6.47656 20.2902 6.47656 20.8096C6.47656 21.0859 6.49867 21.097 6.8855 21.0307C7.1176 20.9975 7.91338 20.9644 8.65389 20.9644H10.0023L10.1239 20.3233C10.3228 19.2623 11.0081 17.2065 11.5165 16.1013C12.8759 13.1945 15.429 10.2988 18.159 8.5525C23.652 5.03784 30.5377 4.69521 36.3181 7.65726C39.8328 9.44775 42.6953 12.3656 44.4416 15.9355C45.0274 17.1513 45.7126 19.1407 45.9337 20.3233L46.0553 20.9644H47.4037C48.1442 20.9644 48.94 20.9975 49.1721 21.0307C49.5589 21.097 49.581 21.0859 49.581 20.8096C49.581 20.6549 49.4594 19.9586 49.3157 19.2733C48.1331 13.8135 44.8285 8.93934 40.1864 5.82256C36.1191 3.08156 31.0129 1.75527 26.2162 2.17526Z" fill="url(#paint0_linear_4095_217)"/>
<path d="M20.6265 22.4027C19.3113 22.878 18.2502 23.8948 17.7197 25.1879C17.4876 25.7516 17.4766 25.9616 17.4434 30.0289C17.3992 34.682 17.4324 35.0688 17.996 36.1298C18.8471 37.7435 20.4828 38.6498 22.5054 38.6498H23.2791V40.3408C23.2791 41.6892 23.3122 42.076 23.4559 42.275C23.8207 42.7944 24.0638 42.6397 26.1417 40.5839L28.0979 38.6498H31.3031C34.7625 38.6498 35.1715 38.5945 36.1994 38.0419C36.8957 37.6551 37.7577 36.7709 38.1225 36.0414C38.6088 35.0798 38.664 34.4941 38.6198 29.9736C38.5867 25.9616 38.5756 25.7516 38.3435 25.1879C37.9899 24.3037 37.2714 23.4416 36.5088 22.9443C35.3041 22.1596 35.5141 22.1817 27.9874 22.1817C21.5549 22.1927 21.2012 22.2038 20.6265 22.4027ZM33.1599 26.9784C33.6352 27.1774 33.8894 27.5421 33.8894 28.0395C33.8894 28.5368 33.6352 28.9015 33.1599 29.1005C32.6184 29.3326 23.4449 29.3326 22.9033 29.1005C22.4281 28.9015 22.1738 28.5368 22.1738 28.0395C22.1738 27.5531 22.4281 27.1774 22.8812 26.9784C23.3896 26.7574 32.6294 26.7574 33.1599 26.9784ZM31.1705 31.8967C31.7342 32.4273 31.6126 33.4662 30.9495 33.7757C30.7616 33.853 29.4021 33.8972 26.7495 33.8972H22.8149L22.4944 33.5767C21.9749 33.0573 22.0854 32.151 22.7044 31.7641C22.9696 31.5983 23.4117 31.5762 26.9485 31.6094L30.8831 31.6315L31.1705 31.8967Z" fill="url(#paint1_linear_4095_217)"/>
<path d="M7.30792 23.3626C4.89849 23.7163 3.03063 25.3189 2.31222 27.6509C2.13539 28.2257 2.11328 28.723 2.11328 31.5745C2.11328 34.4261 2.13539 34.9234 2.31222 35.4982C2.94221 37.5318 4.39008 38.9797 6.42372 39.6097C6.95424 39.7644 7.46265 39.8086 9.02104 39.8086C10.8778 39.8086 10.9773 39.7975 11.4526 39.5323C11.7178 39.3775 12.0936 39.0349 12.2815 38.7807L12.6131 38.2944V31.5745V24.8547L12.2815 24.3684C12.0936 24.1142 11.7178 23.7715 11.4526 23.6168C10.9884 23.3626 10.8447 23.3405 9.29735 23.3294C8.39105 23.3184 7.49581 23.3294 7.30792 23.3626Z" fill="url(#paint2_linear_4095_217)"/>
<path d="M45.1625 23.3847C44.3004 23.6721 43.7035 24.2136 43.5046 24.921C43.4162 25.1973 43.3941 27.4078 43.4162 31.8177L43.4493 38.2944L43.7809 38.7807C43.9688 39.0349 44.3446 39.3775 44.6098 39.5323C45.0851 39.7975 45.1846 39.8086 47.0414 39.8086C49.1303 39.8086 49.705 39.6981 50.8434 39.1233C51.606 38.7365 52.7997 37.5539 53.2086 36.7913C53.9049 35.476 53.9491 35.1666 53.9491 31.5745C53.9491 28.723 53.927 28.2257 53.7502 27.6509C53.1313 25.6394 51.6834 24.1805 49.6939 23.5615C49.0198 23.3515 45.6598 23.2189 45.1625 23.3847Z" fill="url(#paint3_linear_4095_217)"/>
<path d="M47.9033 40.9164C47.1975 40.9456 47.2565 40.8766 47.1519 40.9651C47.0976 41.0111 46.7765 42.3931 46.7539 42.495C46.5328 43.4787 46.4223 43.7771 45.9581 44.7276C45.1181 46.4518 43.4603 47.966 41.6256 48.6733C40.5977 49.0823 40.1777 49.1596 38.7519 49.226L34.8984 49.2923V50.4528V51.6133L38.973 51.547C40.7966 51.4807 41.9129 51.2154 43.3166 50.5191C45.5271 49.4139 47.4723 47.3692 48.3675 45.2029C48.9201 43.8876 49.3291 40.7838 49.0638 40.8612C49.0086 40.8722 48.4891 40.9054 47.9033 40.9164Z" fill="url(#paint4_linear_4095_217)"/>
<path d="M25.5692 47.1485C24.7402 47.4801 24.1102 48.0658 23.7344 48.8506C23.2924 49.7569 23.215 50.3868 23.436 51.2268C23.7344 52.4205 24.3313 53.1278 25.4365 53.6473C26.0997 53.9568 26.1107 53.9568 28.8075 53.9899C32.4438 54.0452 33.1069 53.9015 34.1348 52.8294C34.7869 52.1663 35.0521 51.4589 35.0521 50.42C35.0521 49.6795 35.0079 49.4363 34.7427 48.9058C34.4111 48.2206 33.8253 47.6348 33.0958 47.248C32.6316 47.0048 32.5211 46.9938 29.3601 46.9717C26.376 46.9495 26.0555 46.9606 25.5692 47.1485Z" fill="url(#paint5_linear_4095_217)"/>
<defs>
<linearGradient gradientUnits="userSpaceOnUse" id="paint0_linear_4095_217" x1="27.0185" x2="30.423" y1="10.4823" y2="21.2092">
<stop stop-color="#FFA72D"/>
<stop offset="1" stop-color="#FFCC00"/>
</linearGradient>
<linearGradient gradientUnits="userSpaceOnUse" id="paint1_linear_4095_217" x1="27.534" x2="33.4615" y1="31.1751" y2="39.7388">
<stop stop-color="#FFA72D"/>
<stop offset="1" stop-color="#FFCC00"/>
</linearGradient>
<linearGradient gradientUnits="userSpaceOnUse" id="paint2_linear_4095_217" x1="7.1171" x2="12.2087" y1="30.6115" y2="35.1078">
<stop stop-color="#FFA72D"/>
<stop offset="1" stop-color="#FFCC00"/>
</linearGradient>
<linearGradient gradientUnits="userSpaceOnUse" id="paint3_linear_4095_217" x1="48.4316" x2="53.5298" y1="30.6029" y2="35.1185">
<stop stop-color="#FFA72D"/>
<stop offset="1" stop-color="#FFCC00"/>
</linearGradient>
<linearGradient gradientUnits="userSpaceOnUse" id="paint4_linear_4095_217" x1="41.6886" x2="44.5" y1="45.6132" y2="50.7774">
<stop stop-color="#FFA72D"/>
<stop offset="1" stop-color="#FFCC00"/>
</linearGradient>
<linearGradient gradientUnits="userSpaceOnUse" id="paint5_linear_4095_217" x1="28.9092" x2="30.5053" y1="50.0738" y2="53.7643">
<stop stop-color="#FFA72D"/>
<stop offset="1" stop-color="#FFCC00"/>
</linearGradient>
</defs>
</svg>